<svg id="visual" viewBox="0 0 960 540" width="960" height="540" xmlns="http://www.w3.org/2000/svg" xmlns:xlink="http://www.w3.org/1999/xlink" version="1.1"><g stroke-width="1" stroke-linejoin="bevel"><path d="M490 272L491 295L547 259Z" fill="#246688" stroke="#246688"></path><path d="M491 295L538 315L547 259Z" fill="#246688" stroke="#246688"></path><path d="M538 315L572 286L547 259Z" fill="#15384f" stroke="#15384f"></path><path d="M538 315L576 313L572 286Z" fill="#246688" stroke="#246688"></path><path d="M587 228L546 222L547 259Z" fill="#205a7a" stroke="#205a7a"></path><path d="M547 259L479 230L490 272Z" fill="#19435d" stroke="#19435d"></path><path d="M546 222L479 230L547 259Z" fill="#112e42" stroke="#112e42"></path><path d="M490 272L421 265L491 295Z" fill="#15384f" stroke="#15384f"></path><path d="M498 374L533 361L538 315Z" fill="#081a28" stroke="#081a28"></path><path d="M538 315L533 361L576 313Z" fill="#0c2435" stroke="#0c2435"></path><path d="M623 275L587 228L572 286Z" fill="#15384f" stroke="#15384f"></path><path d="M572 286L587 228L547 259Z" fill="#00101c" stroke="#00101c"></path><path d="M587 228L556 195L546 222Z" fill="#112e42" stroke="#112e42"></path><path d="M546 222L495 185L479 230Z" fill="#297ea6" stroke="#297ea6"></path><path d="M428 355L498 374L491 295Z" fill="#297ea6" stroke="#297ea6"></path><path d="M491 295L498 374L538 315Z" fill="#246688" stroke="#246688"></path><path d="M556 195L495 185L546 222Z" fill="#19435d" stroke="#19435d"></path><path d="M620 315L572 286L576 313Z" fill="#0c2435" stroke="#0c2435"></path><path d="M620 315L623 275L572 286Z" fill="#0c2435" stroke="#0c2435"></path><path d="M428 233L421 265L479 230Z" fill="#112e42" stroke="#112e42"></path><path d="M479 230L421 265L490 272Z" fill="#297ea6" stroke="#297ea6"></path><path d="M592 371L620 315L576 313Z" fill="#297ea6" stroke="#297ea6"></path><path d="M421 265L425 321L491 295Z" fill="#297ea6" stroke="#297ea6"></path><path d="M446 179L428 233L479 230Z" fill="#00101c" stroke="#00101c"></path><path d="M547 393L592 371L533 361Z" fill="#15384f" stroke="#15384f"></path><path d="M533 361L592 371L576 313Z" fill="#15384f" stroke="#15384f"></path><path d="M498 374L547 393L533 361Z" fill="#00101c" stroke="#00101c"></path><path d="M586 139L531 164L556 195Z" fill="#297ea6" stroke="#297ea6"></path><path d="M556 195L531 164L495 185Z" fill="#19435d" stroke="#19435d"></path><path d="M425 321L428 355L491 295Z" fill="#205a7a" stroke="#205a7a"></path><path d="M498 374L494 414L547 393Z" fill="#112e42" stroke="#112e42"></path><path d="M654 251L640 233L623 275Z" fill="#19435d" stroke="#19435d"></path><path d="M623 275L640 233L587 228Z" fill="#112e42" stroke="#112e42"></path><path d="M632 162L586 139L556 195Z" fill="#246688" stroke="#246688"></path><path d="M547 393L586 393L592 371Z" fill="#205a7a" stroke="#205a7a"></path><path d="M592 371L626 365L620 315Z" fill="#297ea6" stroke="#297ea6"></path><path d="M471 120L446 179L495 185Z" fill="#15384f" stroke="#15384f"></path><path d="M495 185L446 179L479 230Z" fill="#15384f" stroke="#15384f"></path><path d="M530 96L516 154L531 164Z" fill="#246688" stroke="#246688"></path><path d="M531 164L516 154L495 185Z" fill="#246688" stroke="#246688"></path><path d="M586 393L626 365L592 371Z" fill="#297ea6" stroke="#297ea6"></path><path d="M677 295L654 251L623 275Z" fill="#246688" stroke="#246688"></path><path d="M374 289L393 318L421 265Z" fill="#081a28" stroke="#081a28"></path><path d="M421 265L393 318L425 321Z" fill="#297ea6" stroke="#297ea6"></path><path d="M425 321L393 318L428 355Z" fill="#0c2435" stroke="#0c2435"></path><path d="M374 289L421 265L373 232Z" fill="#0c2435" stroke="#0c2435"></path><path d="M429 402L494 414L498 374Z" fill="#1d4e6b" stroke="#1d4e6b"></path><path d="M590 460L608 432L586 393Z" fill="#205a7a" stroke="#205a7a"></path><path d="M677 295L623 275L620 315Z" fill="#00101c" stroke="#00101c"></path><path d="M373 232L421 265L428 233Z" fill="#246688" stroke="#246688"></path><path d="M403 413L429 402L428 355Z" fill="#277297" stroke="#277297"></path><path d="M428 355L429 402L498 374Z" fill="#19435d" stroke="#19435d"></path><path d="M377 356L428 355L393 318Z" fill="#112e42" stroke="#112e42"></path><path d="M668 369L677 295L620 315Z" fill="#19435d" stroke="#19435d"></path><path d="M632 162L587 228L640 233Z" fill="#00101c" stroke="#00101c"></path><path d="M632 162L556 195L587 228Z" fill="#246688" stroke="#246688"></path><path d="M429 402L497 437L494 414Z" fill="#205a7a" stroke="#205a7a"></path><path d="M494 414L497 437L547 393Z" fill="#277297" stroke="#277297"></path><path d="M398 168L373 232L428 233Z" fill="#277297" stroke="#277297"></path><path d="M702 295L671 226L654 251Z" fill="#081a28" stroke="#081a28"></path><path d="M654 251L671 226L640 233Z" fill="#112e42" stroke="#112e42"></path><path d="M676 197L632 162L640 233Z" fill="#297ea6" stroke="#297ea6"></path><path d="M350 332L377 356L393 318Z" fill="#00101c" stroke="#00101c"></path><path d="M418 116L398 168L446 179Z" fill="#1d4e6b" stroke="#1d4e6b"></path><path d="M446 179L398 168L428 233Z" fill="#205a7a" stroke="#205a7a"></path><path d="M471 120L495 185L516 154Z" fill="#1d4e6b" stroke="#1d4e6b"></path><path d="M643 410L668 369L626 365Z" fill="#112e42" stroke="#112e42"></path><path d="M626 365L668 369L620 315Z" fill="#277297" stroke="#277297"></path><path d="M643 410L626 365L586 393Z" fill="#277297" stroke="#277297"></path><path d="M530 96L471 120L516 154Z" fill="#00101c" stroke="#00101c"></path><path d="M689 138L627 146L632 162Z" fill="#112e42" stroke="#112e42"></path><path d="M632 162L627 146L586 139Z" fill="#0c2435" stroke="#0c2435"></path><path d="M590 460L586 393L547 393Z" fill="#00101c" stroke="#00101c"></path><path d="M671 226L676 197L640 233Z" fill="#00101c" stroke="#00101c"></path><path d="M738 237L676 197L671 226Z" fill="#277297" stroke="#277297"></path><path d="M608 432L643 410L586 393Z" fill="#081a28" stroke="#081a28"></path><path d="M496 491L520 459L497 437Z" fill="#205a7a" stroke="#205a7a"></path><path d="M497 437L520 459L547 393Z" fill="#19435d" stroke="#19435d"></path><path d="M377 356L403 413L428 355Z" fill="#15384f" stroke="#15384f"></path><path d="M433 487L496 491L497 437Z" fill="#15384f" stroke="#15384f"></path><path d="M294 297L350 332L374 289Z" fill="#15384f" stroke="#15384f"></path><path d="M374 289L350 332L393 318Z" fill="#112e42" stroke="#112e42"></path><path d="M377 356L355 409L403 413Z" fill="#246688" stroke="#246688"></path><path d="M668 369L702 295L677 295Z" fill="#246688" stroke="#246688"></path><path d="M677 295L702 295L654 251Z" fill="#112e42" stroke="#112e42"></path><path d="M643 410L674 385L668 369Z" fill="#277297" stroke="#277297"></path><path d="M668 369L721 374L702 295Z" fill="#1d4e6b" stroke="#1d4e6b"></path><path d="M577 76L530 96L586 139Z" fill="#15384f" stroke="#15384f"></path><path d="M586 139L530 96L531 164Z" fill="#15384f" stroke="#15384f"></path><path d="M398 168L343 231L373 232Z" fill="#112e42" stroke="#112e42"></path><path d="M373 232L343 231L374 289Z" fill="#15384f" stroke="#15384f"></path><path d="M520 459L590 460L547 393Z" fill="#15384f" stroke="#15384f"></path><path d="M608 432L659 467L643 410Z" fill="#112e42" stroke="#112e42"></path><path d="M738 395L721 374L674 385Z" fill="#19435d" stroke="#19435d"></path><path d="M471 120L418 116L446 179Z" fill="#1d4e6b" stroke="#1d4e6b"></path><path d="M317 167L306 215L343 231Z" fill="#277297" stroke="#277297"></path><path d="M440 94L418 116L471 120Z" fill="#277297" stroke="#277297"></path><path d="M306 215L323 250L343 231Z" fill="#277297" stroke="#277297"></path><path d="M343 231L323 250L374 289Z" fill="#0c2435" stroke="#0c2435"></path><path d="M530 96L467 86L471 120Z" fill="#0c2435" stroke="#0c2435"></path><path d="M467 86L440 94L471 120Z" fill="#081a28" stroke="#081a28"></path><path d="M294 297L327 346L350 332Z" fill="#205a7a" stroke="#205a7a"></path><path d="M350 332L327 346L377 356Z" fill="#246688" stroke="#246688"></path><path d="M689 138L618 100L627 146Z" fill="#15384f" stroke="#15384f"></path><path d="M627 146L618 100L586 139Z" fill="#15384f" stroke="#15384f"></path><path d="M530 96L496 49L467 86Z" fill="#277297" stroke="#277297"></path><path d="M496 491L543 489L520 459Z" fill="#081a28" stroke="#081a28"></path><path d="M520 459L543 489L590 460Z" fill="#246688" stroke="#246688"></path><path d="M748 324L732 283L702 295Z" fill="#081a28" stroke="#081a28"></path><path d="M702 295L738 237L671 226Z" fill="#277297" stroke="#277297"></path><path d="M676 197L689 138L632 162Z" fill="#15384f" stroke="#15384f"></path><path d="M327 346L355 409L377 356Z" fill="#0c2435" stroke="#0c2435"></path><path d="M421 469L497 437L429 402Z" fill="#277297" stroke="#277297"></path><path d="M421 469L429 402L403 413Z" fill="#19435d" stroke="#19435d"></path><path d="M377 443L421 469L403 413Z" fill="#277297" stroke="#277297"></path><path d="M618 100L577 76L586 139Z" fill="#246688" stroke="#246688"></path><path d="M355 409L377 443L403 413Z" fill="#00101c" stroke="#00101c"></path><path d="M659 467L674 385L643 410Z" fill="#1d4e6b" stroke="#1d4e6b"></path><path d="M674 385L721 374L668 369Z" fill="#00101c" stroke="#00101c"></path><path d="M543 489L583 493L590 460Z" fill="#277297" stroke="#277297"></path><path d="M590 460L659 467L608 432Z" fill="#297ea6" stroke="#297ea6"></path><path d="M582 540L583 493L543 489Z" fill="#277297" stroke="#277297"></path><path d="M715 168L689 138L676 197Z" fill="#297ea6" stroke="#297ea6"></path><path d="M642 27L575 40L577 76Z" fill="#1d4e6b" stroke="#1d4e6b"></path><path d="M753 279L738 237L732 283Z" fill="#081a28" stroke="#081a28"></path><path d="M732 283L738 237L702 295Z" fill="#1d4e6b" stroke="#1d4e6b"></path><path d="M577 76L537 60L530 96Z" fill="#1d4e6b" stroke="#1d4e6b"></path><path d="M385 64L418 116L440 94Z" fill="#1d4e6b" stroke="#1d4e6b"></path><path d="M376 99L369 120L418 116Z" fill="#0c2435" stroke="#0c2435"></path><path d="M418 116L369 120L398 168Z" fill="#19435d" stroke="#19435d"></path><path d="M388 484L433 487L421 469Z" fill="#081a28" stroke="#081a28"></path><path d="M421 469L433 487L497 437Z" fill="#081a28" stroke="#081a28"></path><path d="M738 237L715 168L676 197Z" fill="#19435d" stroke="#19435d"></path><path d="M317 167L343 231L398 168Z" fill="#00101c" stroke="#00101c"></path><path d="M323 250L294 297L374 289Z" fill="#19435d" stroke="#19435d"></path><path d="M279 262L294 297L323 250Z" fill="#246688" stroke="#246688"></path><path d="M286 387L342 441L355 409Z" fill="#19435d" stroke="#19435d"></path><path d="M721 374L748 324L702 295Z" fill="#1d4e6b" stroke="#1d4e6b"></path><path d="M642 494L659 467L590 460Z" fill="#15384f" stroke="#15384f"></path><path d="M748 324L753 279L732 283Z" fill="#00101c" stroke="#00101c"></path><path d="M753 162L712 131L715 168Z" fill="#15384f" stroke="#15384f"></path><path d="M385 64L376 99L418 116Z" fill="#00101c" stroke="#00101c"></path><path d="M321 154L317 167L398 168Z" fill="#15384f" stroke="#15384f"></path><path d="M421 49L440 94L467 86Z" fill="#1d4e6b" stroke="#1d4e6b"></path><path d="M537 60L496 49L530 96Z" fill="#277297" stroke="#277297"></path><path d="M721 374L749 343L748 324Z" fill="#15384f" stroke="#15384f"></path><path d="M801 235L769 243L825 297Z" fill="#297ea6" stroke="#297ea6"></path><path d="M738 395L749 343L721 374Z" fill="#246688" stroke="#246688"></path><path d="M321 154L398 168L369 120Z" fill="#19435d" stroke="#19435d"></path><path d="M348 81L321 154L369 120Z" fill="#00101c" stroke="#00101c"></path><path d="M286 387L355 409L327 346Z" fill="#15384f" stroke="#15384f"></path><path d="M355 409L342 441L377 443Z" fill="#081a28" stroke="#081a28"></path><path d="M377 443L388 484L421 469Z" fill="#1d4e6b" stroke="#1d4e6b"></path><path d="M342 441L388 484L377 443Z" fill="#0c2435" stroke="#0c2435"></path><path d="M753 162L715 168L738 237Z" fill="#112e42" stroke="#112e42"></path><path d="M715 168L712 131L689 138Z" fill="#205a7a" stroke="#205a7a"></path><path d="M689 138L682 74L618 100Z" fill="#081a28" stroke="#081a28"></path><path d="M583 493L642 494L590 460Z" fill="#19435d" stroke="#19435d"></path><path d="M720 461L738 395L674 385Z" fill="#277297" stroke="#277297"></path><path d="M720 461L674 385L659 467Z" fill="#246688" stroke="#246688"></path><path d="M250 320L286 343L294 297Z" fill="#277297" stroke="#277297"></path><path d="M294 297L286 343L327 346Z" fill="#1d4e6b" stroke="#1d4e6b"></path><path d="M255 185L279 262L306 215Z" fill="#0c2435" stroke="#0c2435"></path><path d="M306 215L279 262L323 250Z" fill="#15384f" stroke="#15384f"></path><path d="M285 185L306 215L317 167Z" fill="#297ea6" stroke="#297ea6"></path><path d="M642 27L577 76L618 100Z" fill="#112e42" stroke="#112e42"></path><path d="M577 76L575 40L537 60Z" fill="#19435d" stroke="#19435d"></path><path d="M537 60L533 0L496 49Z" fill="#15384f" stroke="#15384f"></path><path d="M769 243L753 279L825 297Z" fill="#0c2435" stroke="#0c2435"></path><path d="M753 279L769 243L738 237Z" fill="#00101c" stroke="#00101c"></path><path d="M496 49L421 49L467 86Z" fill="#00101c" stroke="#00101c"></path><path d="M275 152L317 167L321 154Z" fill="#112e42" stroke="#112e42"></path><path d="M496 0L421 49L496 49Z" fill="#1d4e6b" stroke="#1d4e6b"></path><path d="M348 81L369 120L376 99Z" fill="#205a7a" stroke="#205a7a"></path><path d="M275 152L285 185L317 167Z" fill="#15384f" stroke="#15384f"></path><path d="M421 49L385 64L440 94Z" fill="#0c2435" stroke="#0c2435"></path><path d="M491 540L516 540L496 491Z" fill="#112e42" stroke="#112e42"></path><path d="M496 491L516 540L543 489Z" fill="#081a28" stroke="#081a28"></path><path d="M583 493L611 540L642 494Z" fill="#297ea6" stroke="#297ea6"></path><path d="M491 540L496 491L433 487Z" fill="#00101c" stroke="#00101c"></path><path d="M286 343L286 387L327 346Z" fill="#277297" stroke="#277297"></path><path d="M258 367L286 387L286 343Z" fill="#1d4e6b" stroke="#1d4e6b"></path><path d="M681 540L669 495L642 494Z" fill="#0c2435" stroke="#0c2435"></path><path d="M642 494L669 495L659 467Z" fill="#19435d" stroke="#19435d"></path><path d="M426 540L491 540L433 487Z" fill="#0c2435" stroke="#0c2435"></path><path d="M769 243L753 162L738 237Z" fill="#081a28" stroke="#081a28"></path><path d="M736 78L682 74L712 131Z" fill="#1d4e6b" stroke="#1d4e6b"></path><path d="M712 131L682 74L689 138Z" fill="#246688" stroke="#246688"></path><path d="M516 540L582 540L543 489Z" fill="#15384f" stroke="#15384f"></path><path d="M385 64L348 81L376 99Z" fill="#277297" stroke="#277297"></path><path d="M669 495L720 461L659 467Z" fill="#1d4e6b" stroke="#1d4e6b"></path><path d="M582 540L611 540L583 493Z" fill="#0c2435" stroke="#0c2435"></path><path d="M669 495L715 494L720 461Z" fill="#081a28" stroke="#081a28"></path><path d="M682 74L669 51L618 100Z" fill="#0c2435" stroke="#0c2435"></path><path d="M710 42L669 51L682 74Z" fill="#246688" stroke="#246688"></path><path d="M231 261L250 320L279 262Z" fill="#0c2435" stroke="#0c2435"></path><path d="M279 262L250 320L294 297Z" fill="#1d4e6b" stroke="#1d4e6b"></path><path d="M388 484L426 540L433 487Z" fill="#1d4e6b" stroke="#1d4e6b"></path><path d="M384 540L426 540L388 484Z" fill="#00101c" stroke="#00101c"></path><path d="M353 507L388 484L342 441Z" fill="#15384f" stroke="#15384f"></path><path d="M805 124L752 129L753 162Z" fill="#112e42" stroke="#112e42"></path><path d="M753 162L752 129L712 131Z" fill="#0c2435" stroke="#0c2435"></path><path d="M250 320L258 367L286 343Z" fill="#00101c" stroke="#00101c"></path><path d="M287 476L353 507L342 441Z" fill="#246688" stroke="#246688"></path><path d="M254 131L275 152L283 75Z" fill="#246688" stroke="#246688"></path><path d="M285 185L255 185L306 215Z" fill="#00101c" stroke="#00101c"></path><path d="M282 441L342 441L286 387Z" fill="#1d4e6b" stroke="#1d4e6b"></path><path d="M669 51L642 27L618 100Z" fill="#112e42" stroke="#112e42"></path><path d="M575 40L533 0L537 60Z" fill="#15384f" stroke="#15384f"></path><path d="M569 0L533 0L575 40Z" fill="#081a28" stroke="#081a28"></path><path d="M421 49L378 0L385 64Z" fill="#205a7a" stroke="#205a7a"></path><path d="M825 297L753 279L748 324Z" fill="#205a7a" stroke="#205a7a"></path><path d="M769 243L801 235L753 162Z" fill="#1d4e6b" stroke="#1d4e6b"></path><path d="M813 361L748 324L749 343Z" fill="#246688" stroke="#246688"></path><path d="M781 414L749 343L738 395Z" fill="#297ea6" stroke="#297ea6"></path><path d="M533 0L496 0L496 49Z" fill="#297ea6" stroke="#297ea6"></path><path d="M385 64L338 27L348 81Z" fill="#1d4e6b" stroke="#1d4e6b"></path><path d="M275 152L255 185L285 185Z" fill="#00101c" stroke="#00101c"></path><path d="M621 0L569 0L575 40Z" fill="#205a7a" stroke="#205a7a"></path><path d="M701 540L715 494L669 495Z" fill="#081a28" stroke="#081a28"></path><path d="M759 459L781 414L738 395Z" fill="#19435d" stroke="#19435d"></path><path d="M252 421L282 441L286 387Z" fill="#15384f" stroke="#15384f"></path><path d="M759 459L738 395L720 461Z" fill="#205a7a" stroke="#205a7a"></path><path d="M226 233L231 261L279 262Z" fill="#15384f" stroke="#15384f"></path><path d="M194 357L252 421L258 367Z" fill="#246688" stroke="#246688"></path><path d="M353 540L384 540L353 507Z" fill="#277297" stroke="#277297"></path><path d="M353 507L384 540L388 484Z" fill="#205a7a" stroke="#205a7a"></path><path d="M715 494L759 459L720 461Z" fill="#00101c" stroke="#00101c"></path><path d="M781 78L736 78L752 129Z" fill="#1d4e6b" stroke="#1d4e6b"></path><path d="M752 129L736 78L712 131Z" fill="#112e42" stroke="#112e42"></path><path d="M669 51L670 0L642 27Z" fill="#246688" stroke="#246688"></path><path d="M670 0L621 0L642 27Z" fill="#0c2435" stroke="#0c2435"></path><path d="M642 27L621 0L575 40Z" fill="#081a28" stroke="#081a28"></path><path d="M496 0L421 0L421 49Z" fill="#277297" stroke="#277297"></path><path d="M283 75L275 152L321 154Z" fill="#0c2435" stroke="#0c2435"></path><path d="M255 185L226 233L279 262Z" fill="#19435d" stroke="#19435d"></path><path d="M814 412L813 361L781 414Z" fill="#081a28" stroke="#081a28"></path><path d="M781 414L813 361L749 343Z" fill="#0c2435" stroke="#0c2435"></path><path d="M611 540L681 540L642 494Z" fill="#246688" stroke="#246688"></path><path d="M715 494L780 489L759 459Z" fill="#246688" stroke="#246688"></path><path d="M813 361L825 297L748 324Z" fill="#246688" stroke="#246688"></path><path d="M258 367L252 421L286 387Z" fill="#112e42" stroke="#112e42"></path><path d="M282 441L287 476L342 441Z" fill="#19435d" stroke="#19435d"></path><path d="M194 357L258 367L250 320Z" fill="#205a7a" stroke="#205a7a"></path><path d="M201 312L250 320L231 261Z" fill="#112e42" stroke="#112e42"></path><path d="M736 78L710 42L682 74Z" fill="#081a28" stroke="#081a28"></path><path d="M246 451L287 476L282 441Z" fill="#15384f" stroke="#15384f"></path><path d="M825 297L827 252L801 235Z" fill="#15384f" stroke="#15384f"></path><path d="M801 235L819 181L753 162Z" fill="#0c2435" stroke="#0c2435"></path><path d="M275 152L254 131L255 185Z" fill="#297ea6" stroke="#297ea6"></path><path d="M255 185L195 219L226 233Z" fill="#00101c" stroke="#00101c"></path><path d="M283 75L321 154L348 81Z" fill="#297ea6" stroke="#297ea6"></path><path d="M302 540L353 540L353 507Z" fill="#19435d" stroke="#19435d"></path><path d="M862 221L819 181L801 235Z" fill="#00101c" stroke="#00101c"></path><path d="M764 29L727 0L710 42Z" fill="#15384f" stroke="#15384f"></path><path d="M681 540L701 540L669 495Z" fill="#297ea6" stroke="#297ea6"></path><path d="M378 0L338 27L385 64Z" fill="#277297" stroke="#277297"></path><path d="M338 27L283 75L348 81Z" fill="#0c2435" stroke="#0c2435"></path><path d="M421 0L378 0L421 49Z" fill="#277297" stroke="#277297"></path><path d="M710 42L670 0L669 51Z" fill="#246688" stroke="#246688"></path><path d="M821 439L814 412L781 414Z" fill="#277297" stroke="#277297"></path><path d="M813 361L854 325L825 297Z" fill="#297ea6" stroke="#297ea6"></path><path d="M821 439L781 414L759 459Z" fill="#1d4e6b" stroke="#1d4e6b"></path><path d="M175 257L231 261L226 233Z" fill="#19435d" stroke="#19435d"></path><path d="M175 257L201 312L231 261Z" fill="#1d4e6b" stroke="#1d4e6b"></path><path d="M252 421L246 451L282 441Z" fill="#19435d" stroke="#19435d"></path><path d="M287 476L302 540L353 507Z" fill="#081a28" stroke="#081a28"></path><path d="M185 454L246 451L252 421Z" fill="#112e42" stroke="#112e42"></path><path d="M819 181L805 124L753 162Z" fill="#00101c" stroke="#00101c"></path><path d="M710 42L727 0L670 0Z" fill="#246688" stroke="#246688"></path><path d="M805 124L798 105L752 129Z" fill="#00101c" stroke="#00101c"></path><path d="M798 105L781 78L752 129Z" fill="#205a7a" stroke="#205a7a"></path><path d="M283 75L243 107L254 131Z" fill="#0c2435" stroke="#0c2435"></path><path d="M182 169L195 219L255 185Z" fill="#205a7a" stroke="#205a7a"></path><path d="M276 60L243 107L283 75Z" fill="#15384f" stroke="#15384f"></path><path d="M760 540L780 489L715 494Z" fill="#00101c" stroke="#00101c"></path><path d="M274 0L276 60L338 27Z" fill="#0c2435" stroke="#0c2435"></path><path d="M338 27L276 60L283 75Z" fill="#19435d" stroke="#19435d"></path><path d="M182 169L255 185L254 131Z" fill="#205a7a" stroke="#205a7a"></path><path d="M825 297L869 282L827 252Z" fill="#081a28" stroke="#081a28"></path><path d="M827 252L862 221L801 235Z" fill="#081a28" stroke="#081a28"></path><path d="M850 355L854 325L813 361Z" fill="#00101c" stroke="#00101c"></path><path d="M850 355L813 361L864 405Z" fill="#112e42" stroke="#112e42"></path><path d="M864 405L813 361L814 412Z" fill="#19435d" stroke="#19435d"></path><path d="M150 367L194 357L201 312Z" fill="#112e42" stroke="#112e42"></path><path d="M201 312L194 357L250 320Z" fill="#19435d" stroke="#19435d"></path><path d="M780 489L821 439L759 459Z" fill="#0c2435" stroke="#0c2435"></path><path d="M378 0L336 0L338 27Z" fill="#112e42" stroke="#112e42"></path><path d="M242 512L302 540L287 476Z" fill="#0c2435" stroke="#0c2435"></path><path d="M869 282L862 221L827 252Z" fill="#0c2435" stroke="#0c2435"></path><path d="M819 181L859 139L805 124Z" fill="#112e42" stroke="#112e42"></path><path d="M805 124L868 75L798 105Z" fill="#246688" stroke="#246688"></path><path d="M895 316L869 282L854 325Z" fill="#00101c" stroke="#00101c"></path><path d="M854 325L869 282L825 297Z" fill="#205a7a" stroke="#205a7a"></path><path d="M153 244L175 257L195 219Z" fill="#19435d" stroke="#19435d"></path><path d="M195 219L175 257L226 233Z" fill="#0c2435" stroke="#0c2435"></path><path d="M764 29L710 42L736 78Z" fill="#081a28" stroke="#081a28"></path><path d="M764 0L764 29L817 0Z" fill="#0c2435" stroke="#0c2435"></path><path d="M781 78L764 29L736 78Z" fill="#19435d" stroke="#19435d"></path><path d="M818 32L781 78L798 105Z" fill="#19435d" stroke="#19435d"></path><path d="M701 540L760 540L715 494Z" fill="#246688" stroke="#246688"></path><path d="M780 489L835 488L821 439Z" fill="#297ea6" stroke="#297ea6"></path><path d="M204 105L254 131L243 107Z" fill="#277297" stroke="#277297"></path><path d="M204 105L182 169L254 131Z" fill="#00101c" stroke="#00101c"></path><path d="M185 454L242 512L246 451Z" fill="#15384f" stroke="#15384f"></path><path d="M246 451L242 512L287 476Z" fill="#19435d" stroke="#19435d"></path><path d="M821 439L864 405L814 412Z" fill="#0c2435" stroke="#0c2435"></path><path d="M901 343L895 316L854 325Z" fill="#297ea6" stroke="#297ea6"></path><path d="M858 469L864 405L821 439Z" fill="#246688" stroke="#246688"></path><path d="M241 39L204 105L243 107Z" fill="#15384f" stroke="#15384f"></path><path d="M241 39L243 107L276 60Z" fill="#246688" stroke="#246688"></path><path d="M194 357L176 396L252 421Z" fill="#277297" stroke="#277297"></path><path d="M150 367L176 396L194 357Z" fill="#205a7a" stroke="#205a7a"></path><path d="M868 160L819 181L862 221Z" fill="#081a28" stroke="#081a28"></path><path d="M868 160L859 139L819 181Z" fill="#00101c" stroke="#00101c"></path><path d="M895 208L868 160L862 221Z" fill="#277297" stroke="#277297"></path><path d="M135 195L153 244L195 219Z" fill="#15384f" stroke="#15384f"></path><path d="M125 303L150 367L201 312Z" fill="#205a7a" stroke="#205a7a"></path><path d="M136 269L153 244L112 259Z" fill="#0c2435" stroke="#0c2435"></path><path d="M818 32L764 29L781 78Z" fill="#246688" stroke="#246688"></path><path d="M764 29L764 0L727 0Z" fill="#205a7a" stroke="#205a7a"></path><path d="M274 0L241 39L276 60Z" fill="#112e42" stroke="#112e42"></path><path d="M901 343L854 325L850 355Z" fill="#205a7a" stroke="#205a7a"></path><path d="M906 270L895 208L862 221Z" fill="#112e42" stroke="#112e42"></path><path d="M814 540L835 488L780 489Z" fill="#0c2435" stroke="#0c2435"></path><path d="M336 0L274 0L338 27Z" fill="#246688" stroke="#246688"></path><path d="M242 512L248 540L302 540Z" fill="#246688" stroke="#246688"></path><path d="M196 540L248 540L242 512Z" fill="#277297" stroke="#277297"></path><path d="M176 396L185 454L252 421Z" fill="#1d4e6b" stroke="#1d4e6b"></path><path d="M895 103L868 75L859 139Z" fill="#0c2435" stroke="#0c2435"></path><path d="M906 270L862 221L869 282Z" fill="#00101c" stroke="#00101c"></path><path d="M136 269L201 312L175 257Z" fill="#15384f" stroke="#15384f"></path><path d="M176 396L134 406L185 454Z" fill="#19435d" stroke="#19435d"></path><path d="M908 405L901 343L864 405Z" fill="#1d4e6b" stroke="#1d4e6b"></path><path d="M864 405L901 343L850 355Z" fill="#246688" stroke="#246688"></path><path d="M895 316L906 270L869 282Z" fill="#00101c" stroke="#00101c"></path><path d="M960 259L906 270L960 314Z" fill="#1d4e6b" stroke="#1d4e6b"></path><path d="M835 488L858 469L821 439Z" fill="#205a7a" stroke="#205a7a"></path><path d="M135 195L195 219L182 169Z" fill="#246688" stroke="#246688"></path><path d="M153 244L136 269L175 257Z" fill="#205a7a" stroke="#205a7a"></path><path d="M160 116L172 117L176 62Z" fill="#205a7a" stroke="#205a7a"></path><path d="M204 105L172 117L182 169Z" fill="#19435d" stroke="#19435d"></path><path d="M172 117L204 105L176 62Z" fill="#246688" stroke="#246688"></path><path d="M868 75L818 32L798 105Z" fill="#15384f" stroke="#15384f"></path><path d="M868 75L805 124L859 139Z" fill="#205a7a" stroke="#205a7a"></path><path d="M760 540L814 540L780 489Z" fill="#00101c" stroke="#00101c"></path><path d="M835 488L880 481L858 469Z" fill="#19435d" stroke="#19435d"></path><path d="M160 116L135 195L182 169Z" fill="#15384f" stroke="#15384f"></path><path d="M136 269L125 303L201 312Z" fill="#0c2435" stroke="#0c2435"></path><path d="M112 259L125 303L136 269Z" fill="#277297" stroke="#277297"></path><path d="M176 62L204 105L241 39Z" fill="#081a28" stroke="#081a28"></path><path d="M172 117L160 116L182 169Z" fill="#0c2435" stroke="#0c2435"></path><path d="M906 270L914 199L895 208Z" fill="#081a28" stroke="#081a28"></path><path d="M895 208L914 199L868 160Z" fill="#00101c" stroke="#00101c"></path><path d="M960 259L914 199L906 270Z" fill="#246688" stroke="#246688"></path><path d="M903 133L859 139L868 160Z" fill="#081a28" stroke="#081a28"></path><path d="M903 461L908 405L864 405Z" fill="#081a28" stroke="#081a28"></path><path d="M960 314L906 270L895 316Z" fill="#081a28" stroke="#081a28"></path><path d="M903 461L864 405L858 469Z" fill="#081a28" stroke="#081a28"></path><path d="M134 406L176 396L150 367Z" fill="#205a7a" stroke="#205a7a"></path><path d="M137 495L188 513L185 454Z" fill="#246688" stroke="#246688"></path><path d="M185 454L188 513L242 512Z" fill="#112e42" stroke="#112e42"></path><path d="M114 395L134 406L150 367Z" fill="#19435d" stroke="#19435d"></path><path d="M851 0L817 0L818 32Z" fill="#246688" stroke="#246688"></path><path d="M818 32L817 0L764 29Z" fill="#297ea6" stroke="#297ea6"></path><path d="M914 199L903 133L868 160Z" fill="#1d4e6b" stroke="#1d4e6b"></path><path d="M853 540L880 481L835 488Z" fill="#15384f" stroke="#15384f"></path><path d="M188 0L176 62L241 39Z" fill="#297ea6" stroke="#297ea6"></path><path d="M105 220L153 244L135 195Z" fill="#19435d" stroke="#19435d"></path><path d="M105 220L135 195L79 174Z" fill="#205a7a" stroke="#205a7a"></path><path d="M105 220L112 259L153 244Z" fill="#1d4e6b" stroke="#1d4e6b"></path><path d="M125 303L111 326L150 367Z" fill="#15384f" stroke="#15384f"></path><path d="M274 0L222 0L241 39Z" fill="#00101c" stroke="#00101c"></path><path d="M903 133L895 103L859 139Z" fill="#081a28" stroke="#081a28"></path><path d="M868 75L875 43L818 32Z" fill="#112e42" stroke="#112e42"></path><path d="M112 259L111 326L125 303Z" fill="#297ea6" stroke="#297ea6"></path><path d="M159 540L196 540L188 513Z" fill="#297ea6" stroke="#297ea6"></path><path d="M188 513L196 540L242 512Z" fill="#19435d" stroke="#19435d"></path><path d="M814 540L853 540L835 488Z" fill="#1d4e6b" stroke="#1d4e6b"></path><path d="M880 481L903 461L858 469Z" fill="#246688" stroke="#246688"></path><path d="M904 481L903 461L880 481Z" fill="#0c2435" stroke="#0c2435"></path><path d="M99 149L135 195L160 116Z" fill="#15384f" stroke="#15384f"></path><path d="M112 259L33 250L111 326Z" fill="#1d4e6b" stroke="#1d4e6b"></path><path d="M108 378L150 367L111 326Z" fill="#1d4e6b" stroke="#1d4e6b"></path><path d="M108 378L114 395L150 367Z" fill="#112e42" stroke="#112e42"></path><path d="M134 406L125 447L185 454Z" fill="#1d4e6b" stroke="#1d4e6b"></path><path d="M114 395L40 422L87 444Z" fill="#112e42" stroke="#112e42"></path><path d="M895 103L875 43L868 75Z" fill="#0c2435" stroke="#0c2435"></path><path d="M87 444L125 447L114 395Z" fill="#15384f" stroke="#15384f"></path><path d="M114 395L125 447L134 406Z" fill="#081a28" stroke="#081a28"></path><path d="M903 540L904 481L880 481Z" fill="#0c2435" stroke="#0c2435"></path><path d="M960 372L901 343L908 405Z" fill="#112e42" stroke="#112e42"></path><path d="M875 43L851 0L818 32Z" fill="#205a7a" stroke="#205a7a"></path><path d="M222 0L188 0L241 39Z" fill="#205a7a" stroke="#205a7a"></path><path d="M98 75L99 149L160 116Z" fill="#0c2435" stroke="#0c2435"></path><path d="M960 314L901 343L960 372Z" fill="#277297" stroke="#277297"></path><path d="M960 314L895 316L901 343Z" fill="#15384f" stroke="#15384f"></path><path d="M914 199L960 128L903 133Z" fill="#00101c" stroke="#00101c"></path><path d="M903 133L960 128L895 103Z" fill="#246688" stroke="#246688"></path><path d="M895 103L914 29L875 43Z" fill="#205a7a" stroke="#205a7a"></path><path d="M960 372L908 405L960 400Z" fill="#19435d" stroke="#19435d"></path><path d="M125 447L137 495L185 454Z" fill="#1d4e6b" stroke="#1d4e6b"></path><path d="M130 70L160 116L176 62Z" fill="#15384f" stroke="#15384f"></path><path d="M105 220L59 226L112 259Z" fill="#205a7a" stroke="#205a7a"></path><path d="M960 259L960 207L914 199Z" fill="#112e42" stroke="#112e42"></path><path d="M137 495L159 540L188 513Z" fill="#00101c" stroke="#00101c"></path><path d="M124 59L130 70L176 62Z" fill="#15384f" stroke="#15384f"></path><path d="M960 207L960 196L914 199Z" fill="#205a7a" stroke="#205a7a"></path><path d="M960 400L908 405L960 449Z" fill="#205a7a" stroke="#205a7a"></path><path d="M960 449L908 405L903 461Z" fill="#00101c" stroke="#00101c"></path><path d="M47 145L79 174L99 149Z" fill="#297ea6" stroke="#297ea6"></path><path d="M99 149L79 174L135 195Z" fill="#00101c" stroke="#00101c"></path><path d="M150 0L124 59L176 62Z" fill="#1d4e6b" stroke="#1d4e6b"></path><path d="M130 70L98 75L160 116Z" fill="#1d4e6b" stroke="#1d4e6b"></path><path d="M853 540L903 540L880 481Z" fill="#19435d" stroke="#19435d"></path><path d="M960 475L960 449L903 461Z" fill="#00101c" stroke="#00101c"></path><path d="M960 196L960 128L914 199Z" fill="#081a28" stroke="#081a28"></path><path d="M875 43L914 29L851 0Z" fill="#205a7a" stroke="#205a7a"></path><path d="M125 447L83 484L137 495Z" fill="#112e42" stroke="#112e42"></path><path d="M137 495L92 540L159 540Z" fill="#0c2435" stroke="#0c2435"></path><path d="M53 439L87 444L40 422Z" fill="#297ea6" stroke="#297ea6"></path><path d="M41 365L108 378L111 326Z" fill="#19435d" stroke="#19435d"></path><path d="M960 83L914 29L895 103Z" fill="#15384f" stroke="#15384f"></path><path d="M79 174L59 226L105 220Z" fill="#1d4e6b" stroke="#1d4e6b"></path><path d="M188 0L150 0L176 62Z" fill="#1d4e6b" stroke="#1d4e6b"></path><path d="M960 475L903 461L904 481Z" fill="#277297" stroke="#277297"></path><path d="M89 32L98 75L124 59Z" fill="#112e42" stroke="#112e42"></path><path d="M124 59L98 75L130 70Z" fill="#00101c" stroke="#00101c"></path><path d="M32 180L33 250L59 226Z" fill="#112e42" stroke="#112e42"></path><path d="M960 540L960 475L904 481Z" fill="#277297" stroke="#277297"></path><path d="M960 128L960 83L895 103Z" fill="#00101c" stroke="#00101c"></path><path d="M64 475L83 484L87 444Z" fill="#0c2435" stroke="#0c2435"></path><path d="M87 444L83 484L125 447Z" fill="#19435d" stroke="#19435d"></path><path d="M32 333L41 365L111 326Z" fill="#19435d" stroke="#19435d"></path><path d="M32 180L59 226L79 174Z" fill="#246688" stroke="#246688"></path><path d="M59 226L33 250L112 259Z" fill="#205a7a" stroke="#205a7a"></path><path d="M960 38L925 0L914 29Z" fill="#297ea6" stroke="#297ea6"></path><path d="M914 29L925 0L851 0Z" fill="#246688" stroke="#246688"></path><path d="M33 250L32 333L111 326Z" fill="#277297" stroke="#277297"></path><path d="M98 75L47 145L99 149Z" fill="#205a7a" stroke="#205a7a"></path><path d="M39 71L47 145L98 75Z" fill="#277297" stroke="#277297"></path><path d="M40 422L114 395L108 378Z" fill="#205a7a" stroke="#205a7a"></path><path d="M40 422L108 378L41 365Z" fill="#19435d" stroke="#19435d"></path><path d="M53 439L64 475L87 444Z" fill="#112e42" stroke="#112e42"></path><path d="M83 484L92 540L137 495Z" fill="#0c2435" stroke="#0c2435"></path><path d="M150 0L89 32L124 59Z" fill="#205a7a" stroke="#205a7a"></path><path d="M0 173L32 180L0 148Z" fill="#00101c" stroke="#00101c"></path><path d="M47 145L32 180L79 174Z" fill="#15384f" stroke="#15384f"></path><path d="M33 250L0 273L32 333Z" fill="#246688" stroke="#246688"></path><path d="M960 83L960 38L914 29Z" fill="#205a7a" stroke="#205a7a"></path><path d="M42 540L92 540L83 484Z" fill="#0c2435" stroke="#0c2435"></path><path d="M0 416L40 422L41 365Z" fill="#0c2435" stroke="#0c2435"></path><path d="M53 439L0 489L64 475Z" fill="#15384f" stroke="#15384f"></path><path d="M64 475L42 540L83 484Z" fill="#0c2435" stroke="#0c2435"></path><path d="M903 540L960 540L904 481Z" fill="#112e42" stroke="#112e42"></path><path d="M150 0L85 0L89 32Z" fill="#112e42" stroke="#112e42"></path><path d="M89 32L39 71L98 75Z" fill="#00101c" stroke="#00101c"></path><path d="M960 38L960 0L925 0Z" fill="#19435d" stroke="#19435d"></path><path d="M0 242L33 250L32 180Z" fill="#112e42" stroke="#112e42"></path><path d="M0 242L0 273L33 250Z" fill="#15384f" stroke="#15384f"></path><path d="M32 333L0 343L41 365Z" fill="#00101c" stroke="#00101c"></path><path d="M0 273L0 319L32 333Z" fill="#1d4e6b" stroke="#1d4e6b"></path><path d="M0 173L0 242L32 180Z" fill="#19435d" stroke="#19435d"></path><path d="M0 319L0 343L32 333Z" fill="#297ea6" stroke="#297ea6"></path><path d="M40 422L0 439L53 439Z" fill="#277297" stroke="#277297"></path><path d="M39 44L39 71L89 32Z" fill="#297ea6" stroke="#297ea6"></path><path d="M0 148L32 180L47 145Z" fill="#277297" stroke="#277297"></path><path d="M49 0L39 44L89 32Z" fill="#1d4e6b" stroke="#1d4e6b"></path><path d="M0 82L0 148L47 145Z" fill="#297ea6" stroke="#297ea6"></path><path d="M0 343L0 416L41 365Z" fill="#1d4e6b" stroke="#1d4e6b"></path><path d="M0 82L47 145L39 71Z" fill="#15384f" stroke="#15384f"></path><path d="M0 489L42 540L64 475Z" fill="#205a7a" stroke="#205a7a"></path><path d="M0 416L0 439L40 422Z" fill="#00101c" stroke="#00101c"></path><path d="M85 0L49 0L89 32Z" fill="#205a7a" stroke="#205a7a"></path><path d="M0 60L0 82L39 71Z" fill="#1d4e6b" stroke="#1d4e6b"></path><path d="M0 60L39 71L39 44Z" fill="#0c2435" stroke="#0c2435"></path><path d="M0 439L0 489L53 439Z" fill="#081a28" stroke="#081a28"></path><path d="M0 0L0 60L39 44Z" fill="#205a7a" stroke="#205a7a"></path><path d="M0 489L0 540L42 540Z" fill="#19435d" stroke="#19435d"></path><path d="M49 0L0 0L39 44Z" fill="#081a28" stroke="#081a28"></path></g></svg>